<?xml version="1.0" standalone="no"?><!DOCTYPE svg PUBLIC "-//W3C//DTD SVG 1.1//EN" "http://www.w3.org/Graphics/SVG/1.1/DTD/svg11.dtd"><svg
        class="icon" viewBox="0 0 1024 1024" version="1.1" xmlns="http://www.w3.org/2000/svg"
        xmlns:xlink="http://www.w3.org/1999/xlink" width="200" height="200"><defs><style type="text/css"></style></defs><path d="M392.773162 707.141162s-33.923359-30.336871-28.56751-33.908431c23.406709-10.474853 31.877349-13.408529 36.400264-16.789023l295.008529-108.999774-5.221504-27.884844L927.968902 410.558321 726.944466 263.534212l20.885023-27.882853-60.046803-27.883849L121.259911 4.975705l433.377897 266.164369-91.374834 20.278981 135.756128 91.256412-234.963716 81.115927 28.717776 48.16283L82.099125 658.977337l193.192677 159.697229 46.992544-17.743363 509.087223 223.067802L421.491934 684.326562l-28.718772 22.8146zM324.895596 793.326336l-28.717777 7.604867-187.971172-139.418247 310.674037-141.953866-31.327036-48.16283 250.62823-86.186169-146.201128-83.651545 80.93282-32.953096L215.244999 53.13953 721.722962 238.186978l-26.107522 22.813605 148.810387 116.604641s23.196735 20.170511-2.610255 35.488716c-55.298985 32.810791-219.299203 93.791036-219.299203 93.791036l33.939281 38.023339-255.849734 96.32566-87.731623 38.023339 96.595344 65.907187 12.021302-35.488715 313.284291 263.62875L324.895596 793.326336z m47.576692-59.197947l-132.764735-73.75885 128.088568-63.427296L530.43001 519.672536l-14.69027-23.41268 244.884276-106.995561-145.057711-92.007743 43.014966-28.740665 10.861963-9.714565-207.455036-99.557878L632.176202 275.086803l-82.147887 27.187249 121.796291 86.016-241.533636 89.36465 26.777252 46.731817-295.4036 127.82386 143.99689 117.335075 26.193104-1.497687 182.224233 78.258876-123.879121-98.780672-17.72744-13.397582z" fill="#173075"></path></svg>